<?xml version="1.0" encoding="UTF-8"?>
<svg xmlns="http://www.w3.org/2000/svg" xmlns:xlink="http://www.w3.org/1999/xlink" viewBox="0 0 48 48" width="48px" height="48px">
<g id="surface23596822">
<path style=" stroke:none;fill-rule:nonzero;fill:rgb(100%,100%,100%);fill-opacity:1;" d="M 0 24 C 0 10.746094 10.746094 0 24 0 C 37.253906 0 48 10.746094 48 24 C 48 37.253906 37.253906 48 24 48 C 10.746094 48 0 37.253906 0 24 Z M 24 46.078125 C 36.195312 46.078125 46.078125 36.195312 46.078125 24 C 46.078125 11.804688 36.195312 1.921875 24 1.921875 C 11.804688 1.921875 1.921875 11.804688 1.921875 24 C 1.921875 36.195312 11.804688 46.078125 24 46.078125 Z M 24 46.078125 "/>
<path style=" stroke:none;fill-rule:nonzero;fill:rgb(100%,100%,100%);fill-opacity:1;" d="M 32.945312 19.199219 L 27.304688 19.199219 L 27.304688 16 C 27.304688 14.347656 27.4375 13.308594 29.804688 13.308594 L 32.792969 13.308594 L 32.792969 8.222656 C 31.339844 8.070312 29.878906 7.996094 28.414062 8 C 24.074219 8 20.90625 10.652344 20.90625 15.519531 L 20.90625 19.199219 L 16.105469 19.199219 L 16.105469 25.601562 L 20.90625 25.597656 L 20.90625 40 L 27.304688 40 L 27.304688 25.59375 L 32.210938 25.59375 Z M 32.945312 19.199219 "/>
</g>
</svg>
