<?xml version="1.0" encoding="UTF-8"?>
<svg xmlns="http://www.w3.org/2000/svg" xmlns:xlink="http://www.w3.org/1999/xlink" viewBox="0 0 64 64" width="64px" height="64px">
<g id="surface21889147">
<path style=" stroke:none;fill-rule:nonzero;fill:#424242;fill-opacity:1;" d="M 0 32 C 0 14.328125 14.328125 0 32 0 C 49.671875 0 64 14.328125 64 32 C 64 49.671875 49.671875 64 32 64 C 14.328125 64 0 49.671875 0 32 Z M 32 60.160156 C 47.550781 60.160156 60.160156 47.550781 60.160156 32 C 60.160156 16.449219 47.550781 3.839844 32 3.839844 C 16.449219 3.839844 3.839844 16.449219 3.839844 32 C 3.839844 47.550781 16.449219 60.160156 32 60.160156 Z M 32 60.160156 "/>
<path style=" stroke:none;fill-rule:nonzero;fill:#424242;fill-opacity:1;" d="M 25.109375 19.601562 C 18.261719 19.601562 12.710938 25.148438 12.710938 32 C 12.710938 38.851562 18.261719 44.398438 25.109375 44.398438 C 31.960938 44.398438 37.511719 38.851562 37.511719 32 C 37.511719 31.148438 37.417969 30.320312 37.253906 29.519531 L 37.1875 29.246094 L 25.109375 29.246094 L 25.109375 33.378906 L 33.378906 33.378906 C 32.722656 37.285156 29.207031 40.265625 25.109375 40.265625 C 20.546875 40.265625 16.84375 36.5625 16.84375 32 C 16.84375 27.4375 20.546875 23.734375 25.109375 23.734375 C 27.179688 23.734375 29.0625 24.496094 30.515625 25.75 L 33.476562 22.851562 C 31.269531 20.832031 28.335938 19.601562 25.109375 19.601562 Z M 44.398438 25.109375 L 44.398438 29.246094 L 40.265625 29.246094 L 40.265625 32 L 44.398438 32 L 44.398438 36.132812 L 47.15625 36.132812 L 47.15625 32 L 51.289062 32 L 51.289062 29.246094 L 47.15625 29.246094 L 47.15625 25.109375 Z M 44.398438 25.109375 "/>
</g>
</svg>
