<?xml version="1.0" encoding="UTF-8"?>
<svg xmlns="http://www.w3.org/2000/svg" xmlns:xlink="http://www.w3.org/1999/xlink" viewBox="0 0 50 50" width="50px" height="50px">
<g id="surface21862736">
<path style=" stroke:none;fill-rule:nonzero;fill:#424242;fill-opacity:1;" d="M 0 25 C 0 11.191406 11.191406 0 25 0 C 38.808594 0 50 11.191406 50 25 C 50 38.808594 38.808594 50 25 50 C 11.191406 50 0 38.808594 0 25 Z M 25 47 C 37.148438 47 47 37.148438 47 25 C 47 12.851562 37.148438 3 25 3 C 12.851562 3 3 12.851562 3 25 C 3 37.148438 12.851562 47 25 47 Z M 25 47 "/>
<path style=" stroke:none;fill-rule:evenodd;fill:#424242;fill-opacity:1;" d="M 15.585938 9.199219 L 17.9375 16.261719 L 17.9375 20.96875 L 19.507812 20.96875 L 19.507812 16.261719 L 21.863281 9.199219 L 20.292969 9.199219 L 18.722656 13.90625 L 17.152344 9.199219 Z M 24.214844 12.339844 C 23.378906 12.339844 22.96875 12.46875 22.457031 12.890625 C 21.964844 13.304688 21.832031 13.621094 21.863281 14.691406 L 21.863281 18.617188 C 21.863281 19.398438 21.992188 19.910156 22.460938 20.367188 C 22.953125 20.824219 23.414062 20.96875 24.214844 20.96875 C 25.050781 20.96875 25.507812 20.824219 25.980469 20.367188 C 26.472656 19.929688 26.570312 19.398438 26.570312 18.617188 L 26.570312 14.691406 C 26.570312 14 26.445312 13.34375 25.972656 12.90625 C 25.480469 12.453125 24.976562 12.339844 24.214844 12.339844 Z M 28.136719 12.339844 L 28.136719 19.398438 C 28.136719 20.164062 28.90625 20.96875 29.707031 20.96875 C 30.507812 20.96875 30.929688 20.566406 31.277344 20.183594 L 31.277344 20.96875 L 32.847656 20.96875 L 32.847656 12.339844 L 31.277344 12.339844 L 31.277344 18.617188 C 31.269531 19.152344 30.636719 19.398438 30.492188 19.398438 C 30.328125 19.398438 29.707031 19.367188 29.707031 18.617188 L 29.707031 12.339844 Z M 24.214844 13.90625 C 24.453125 13.90625 25 13.90625 25 14.691406 L 25 18.617188 C 25 19.375 24.46875 19.398438 24.214844 19.398438 C 23.980469 19.398438 23.429688 19.390625 23.429688 18.617188 L 23.429688 14.691406 C 23.429688 14.050781 23.769531 13.90625 24.214844 13.90625 Z M 13.230469 22.539062 C 10.410156 22.539062 8.523438 24.40625 8.523438 27.246094 L 8.523438 34.699219 C 8.523438 37.539062 10.410156 39.800781 13.230469 39.800781 L 36.769531 39.800781 C 39.589844 39.800781 41.476562 37.929688 41.476562 35.09375 L 41.476562 27.246094 C 41.476562 24.40625 39.589844 22.539062 36.769531 22.539062 Z M 14.800781 25.675781 L 19.507812 25.675781 L 19.507812 27.246094 L 17.9375 27.246094 L 17.9375 36.660156 L 16.371094 36.660156 L 16.371094 27.246094 L 14.800781 27.246094 Z M 25.785156 25.675781 L 27.355469 25.675781 L 27.355469 28.816406 C 27.535156 28.535156 27.804688 28.308594 28.0625 28.183594 C 28.3125 28.054688 28.566406 27.980469 28.824219 27.980469 C 29.332031 27.980469 29.730469 28.164062 30.003906 28.507812 C 30.277344 28.855469 30.492188 29.316406 30.492188 29.992188 L 30.492188 34.699219 C 30.492188 35.28125 30.296875 35.644531 30.039062 35.953125 C 29.789062 36.261719 29.410156 36.65625 28.921875 36.660156 C 28.097656 36.671875 27.65625 36.230469 27.355469 35.875 L 27.355469 36.660156 L 25.785156 36.660156 Z M 19.507812 28.03125 L 21.078125 28.03125 L 21.078125 34.308594 C 21.078125 34.488281 21.289062 35.097656 21.863281 35.09375 C 22.5 35.085938 22.503906 34.492188 22.644531 34.308594 L 22.644531 28.03125 L 24.214844 28.03125 L 24.214844 36.660156 L 22.644531 36.660156 L 22.644531 35.875 C 22.355469 36.21875 22.203125 36.328125 21.875 36.488281 C 21.550781 36.671875 21.222656 36.660156 20.914062 36.660156 C 20.535156 36.660156 20.101562 36.316406 19.898438 36.0625 C 19.71875 35.824219 19.507812 35.582031 19.507812 35.09375 Z M 33.785156 28.03125 C 34.53125 28.03125 35.054688 28.191406 35.453125 28.605469 C 35.855469 29.023438 35.984375 29.511719 35.984375 30.296875 L 35.984375 32.738281 L 32.847656 32.738281 L 32.847656 33.953125 C 32.847656 34.390625 32.90625 34.667969 33.019531 34.835938 C 33.125 35.015625 33.34375 35.09375 33.628906 35.09375 C 33.949219 35.089844 34.152344 35.023438 34.257812 34.878906 C 34.371094 34.753906 34.414062 34.386719 34.414062 33.914062 L 34.414062 33.523438 L 35.984375 33.523438 L 35.984375 33.988281 C 35.984375 34.84375 35.917969 35.480469 35.496094 35.898438 C 35.097656 36.335938 34.472656 36.539062 33.660156 36.539062 C 32.914062 36.539062 32.332031 36.316406 31.914062 35.863281 C 31.496094 35.410156 31.28125 34.789062 31.28125 33.988281 L 31.28125 30.296875 C 31.28125 29.585938 31.527344 29.058594 31.984375 28.589844 C 32.351562 28.210938 33.042969 28.03125 33.785156 28.03125 Z M 28.136719 29.207031 C 27.707031 29.207031 27.359375 29.597656 27.355469 29.992188 L 27.355469 34.699219 C 27.359375 34.925781 27.707031 35.09375 28.136719 35.09375 C 28.570312 35.09375 28.921875 34.757812 28.921875 34.324219 L 28.921875 30.382812 C 28.921875 29.601562 28.570312 29.207031 28.136719 29.207031 Z M 33.628906 29.601562 C 33.199219 29.601562 32.851562 29.964844 32.847656 30.382812 L 32.847656 31.167969 L 34.414062 31.167969 L 34.414062 30.382812 C 34.414062 29.902344 34.0625 29.601562 33.628906 29.601562 Z M 33.628906 29.601562 "/>
</g>
</svg>
